<svg width="878" height="470" viewBox="0 0 878 470" fill="none" xmlns="http://www.w3.org/2000/svg">
<path d="M878 0H0V470H878V0Z" fill="black"/>
<path d="M415 31H39V443H415V31Z" fill="white"/>
<path d="M463 443L839 443V31L463 31L463 443Z" fill="white"/>
<path opacity="0.2" d="M367 83H69V93H367V83Z" fill="#14131E"/>
<path opacity="0.2" d="M367 123H69V133H367V123Z" fill="#14131E"/>
<path opacity="0.2" d="M367 163H69V173H367V163Z" fill="#14131E"/>
<path opacity="0.2" d="M792 83H494V93H792V83Z" fill="#14131E"/>
<path opacity="0.2" d="M792 123H494V133H792V123Z" fill="#14131E"/>
<path opacity="0.2" d="M792 163H494V173H792V163Z" fill="#14131E"/>
<path opacity="0.2" d="M367 203H69V213H367V203Z" fill="#14131E"/>
<path opacity="0.2" d="M367 243H69V253H367V243Z" fill="#14131E"/>
<path opacity="0.2" d="M367 283H69V293H367V283Z" fill="#14131E"/>
<path opacity="0.2" d="M367 323H69V333H367V323Z" fill="#14131E"/>
<path opacity="0.2" d="M367 363H69V373H367V363Z" fill="#14131E"/>
</svg>
